<?xml version="1.0" encoding="utf-8"?>
<!-- Generator: Adobe Illustrator 21.1.0, SVG Export Plug-In . SVG Version: 6.00 Build 0)  -->
<svg version="1.1" id="Слой_1" xmlns="http://www.w3.org/2000/svg" xmlns:xlink="http://www.w3.org/1999/xlink" x="0px" y="0px"
	 viewBox="0 0 15 12" style="enable-background:new 0 0 15 12;" xml:space="preserve">
<style type="text/css">
	.st0{fill:url(#SVGID_1_);}
</style>
<g>
	
		<linearGradient id="SVGID_1_" gradientUnits="userSpaceOnUse" x1="12.491" y1="17.8318" x2="-1.509" y2="2.8318" gradientTransform="matrix(1 0 0 -1 0 15.89)">
		<stop  offset="0" style="stop-color:#282696;stop-opacity:0.96"/>
		<stop  offset="1" style="stop-color:#09ABE4"/>
	</linearGradient>
	<path class="st0" d="M15,1.4c-0.6,0.2-1.2,0.4-1.8,0.5c0.6-0.4,1.1-1,1.4-1.7c-0.6,0.3-1.3,0.6-2,0.7c-0.6-0.6-1.4-1-2.2-1
		C8.7,0,7.3,1.4,7.3,3c0,0.2,0,0.5,0.1,0.7C4.8,3.6,2.6,2.4,1,0.6C0.8,1,0.6,1.5,0.6,2.1c0,1,0.5,2,1.4,2.5c-0.5,0-1-0.2-1.4-0.4
		c0,0,0,0,0,0c0,1.5,1.1,2.7,2.5,3C2.8,7.3,2.5,7.3,2.3,7.3c-0.2,0-0.4,0-0.6-0.1c0.4,1.2,1.5,2.1,2.9,2.1c-1,0.8-2.4,1.3-3.8,1.3
		c-0.3,0-0.5,0-0.7,0C1.4,11.5,3,12,4.7,12c5.7,0,8.8-4.6,8.8-8.6c0-0.1,0-0.3,0-0.4C14.1,2.6,14.6,2,15,1.4z"/>
</g>
</svg>
