<?xml version="1.0" encoding="utf-8"?>
<!-- Generator: Adobe Illustrator 21.1.0, SVG Export Plug-In . SVG Version: 6.00 Build 0)  -->
<svg version="1.1" id="Слой_1" xmlns="http://www.w3.org/2000/svg" xmlns:xlink="http://www.w3.org/1999/xlink" x="0px" y="0px"
	 viewBox="0 0 22 12" style="enable-background:new 0 0 22 12;" xml:space="preserve">
<style type="text/css">
	.st0{fill:url(#SVGID_1_);}
</style>
<g>
	
		<linearGradient id="SVGID_1_" gradientUnits="userSpaceOnUse" x1="22.0745" y1="15.7534" x2="7.451884e-02" y2="3.7534" gradientTransform="matrix(1 0 0 -1 0 15.89)">
		<stop  offset="0" style="stop-color:#282696"/>
		<stop  offset="1" style="stop-color:#09ABE4"/>
	</linearGradient>
	<path class="st0" d="M21.8,10.7c-0.1-0.1-0.4-0.9-2.2-2.4c-1.8-1.6-1.6-1.4,0.6-4.2c1.4-1.7,1.9-2.8,1.7-3.2
		c-0.2-0.4-1.2-0.3-1.2-0.3l-3.3,0c0,0-0.2,0-0.4,0.1C16.9,0.7,16.8,1,16.8,1s-0.5,1.3-1.2,2.5c-1.5,2.4-2.1,2.5-2.3,2.4
		c-0.6-0.3-0.4-1.4-0.4-2.1c0-2.3,0.4-3.3-0.7-3.5C11.8,0.1,11.5,0,10.6,0C9.4,0,8.4,0,7.8,0.3C7.5,0.4,7.2,0.8,7.3,0.9
		c0.2,0,0.7,0.1,1,0.5c0.3,0.4,0.3,1.4,0.3,1.4s0.2,2.7-0.5,3.1C7.7,6.1,7.1,5.6,5.8,3.4C5.2,2.3,4.6,1.1,4.6,1.1S4.5,0.8,4.4,0.7
		C4.2,0.6,3.9,0.5,3.9,0.5l-3.1,0c0,0-0.5,0-0.6,0.2c-0.2,0.2,0,0.5,0,0.5s2.5,5.5,5.2,8.3c2.6,2.5,5.5,2.4,5.5,2.4h1.3
		c0,0,0.4,0,0.6-0.3c0.2-0.2,0.2-0.6,0.2-0.6s0-1.7,0.8-1.9c0.8-0.2,1.8,1.6,2.9,2.4c0.8,0.5,1.5,0.4,1.5,0.4l2.9,0
		C21,11.9,22.5,11.9,21.8,10.7z"/>
</g>
</svg>
