<?xml version="1.0" encoding="utf-8"?>
<!-- Generator: Adobe Illustrator 21.1.0, SVG Export Plug-In . SVG Version: 6.00 Build 0)  -->
<svg version="1.1" id="Слой_1" xmlns="http://www.w3.org/2000/svg" xmlns:xlink="http://www.w3.org/1999/xlink" x="0px" y="0px"
	 viewBox="0 0 12 12" style="enable-background:new 0 0 12 12;" xml:space="preserve">
<style type="text/css">
	.st0{fill:url(#SVGID_1_);}
</style>
<g>
	
		<linearGradient id="SVGID_1_" gradientUnits="userSpaceOnUse" x1="12.0012" y1="15.8888" x2="1.237217e-03" y2="3.8888" gradientTransform="matrix(1 0 0 -1 0 15.89)">
		<stop  offset="0" style="stop-color:#282696"/>
		<stop  offset="1" style="stop-color:#09ABE4"/>
	</linearGradient>
	<path class="st0" d="M12,1.2C11.9,0.5,11.3,0,10.6,0C7.5,0,4.5,0,1.4,0C1.3,0,1.2,0,1.1,0C0.5,0.2,0,0.7,0,1.4C0,2.9,0,4.5,0,6
		c0,1.5,0,3.1,0,4.6c0,0.1,0,0.2,0,0.2C0.1,11.5,0.7,12,1.4,12c3.1,0,6.2,0,9.3,0c0.1,0,0.1,0,0.2,0c0.7-0.1,1.2-0.7,1.2-1.4
		c0-3.1,0-6.2,0-9.3C12,1.3,12,1.3,12,1.2z M6,3.7c1.3,0,2.3,1,2.3,2.3c0,1.3-1,2.3-2.3,2.3c-1.3,0-2.3-1-2.3-2.3
		C3.7,4.7,4.7,3.7,6,3.7z M10.6,5.1c0,1.7,0,3.3,0,5c0,0.3-0.2,0.5-0.5,0.5c-2.6,0-5.1,0-7.7,0c-0.2,0-0.4,0-0.6,0
		c-0.3,0-0.5-0.2-0.5-0.5c0-1.7,0-3.3,0-5c0,0,0,0,0-0.1c0.3,0,0.7,0,1,0C2.2,6,2.3,6.9,2.8,7.8c0.3,0.6,0.8,1.1,1.4,1.5
		c1.2,0.7,2.7,0.6,3.9-0.2c0.6-0.4,1.1-1,1.4-1.7c0.3-0.7,0.3-1.5,0.1-2.2C9.9,5.1,10.3,5.1,10.6,5.1C10.6,5.1,10.6,5.1,10.6,5.1z
		 M10.6,3.2c0,0.3-0.2,0.5-0.5,0.5c0,0,0,0,0,0c-0.2,0-0.4,0-0.7,0c-0.2,0-0.5,0-0.7,0c-0.3,0-0.5-0.2-0.5-0.5c0-0.5,0-0.9,0-1.4
		c0-0.3,0.2-0.5,0.5-0.5c0.5,0,0.9,0,1.4,0c0.3,0,0.5,0.2,0.5,0.5C10.6,2.3,10.6,2.8,10.6,3.2z"/>
</g>
</svg>
